<svg width="64" height="49" viewBox="0 0 64 49" fill="none" xmlns="http://www.w3.org/2000/svg">
<path d="M23 5L23.8153 6.25905L23.8153 6.25905L23 5ZM11.0485 48.1596C11.6889 48.6851 12.6341 48.5919 13.1596 47.9515L21.723 37.5151C22.2485 36.8747 22.1553 35.9295 21.5149 35.404C20.8745 34.8785 19.9293 34.9717 19.4038 35.6121L11.7919 44.8889L2.51512 37.277C1.87469 36.7515 0.929523 36.8447 0.404029 37.4851C-0.121465 38.1255 -0.0282937 39.0707 0.612134 39.5962L11.0485 48.1596ZM62.5 8.5C63.045 7.1025 63.0446 7.10236 63.0441 7.10218C63.0439 7.10206 63.0433 7.10184 63.0427 7.10161C63.0415 7.10115 63.0399 7.10052 63.0378 7.09972C63.0338 7.09814 63.028 7.0959 63.0205 7.09302C63.0056 7.08726 62.984 7.07894 62.9559 7.06817C62.8997 7.04663 62.8174 7.01529 62.7104 6.97504C62.4963 6.89454 62.1832 6.77839 61.782 6.63377C60.9798 6.34458 59.8245 5.94123 58.4034 5.48125C55.5642 4.56219 51.6507 3.41267 47.3658 2.49704C43.0888 1.58312 38.3941 0.891714 34.0049 0.912552C29.6457 0.933248 25.4042 1.65602 22.1847 3.74094L23.8153 6.25905C26.3322 4.6292 29.8964 3.93209 34.0191 3.91252C38.1117 3.89309 42.5749 4.54102 46.7389 5.4308C50.8948 6.31886 54.7052 7.43739 57.4795 8.33544C58.8653 8.78402 59.9893 9.1765 60.7646 9.45599C61.1522 9.59572 61.4525 9.70713 61.6545 9.7831C61.7556 9.82109 61.832 9.85021 61.8826 9.86958C61.9078 9.87926 61.9266 9.8865 61.9388 9.89119C61.9448 9.89354 61.9492 9.89525 61.9519 9.8963C61.9533 9.89683 61.9542 9.89719 61.9548 9.89739C61.955 9.89749 61.9551 9.89752 61.9552 9.89757C61.9552 9.89756 61.955 9.8975 62.5 8.5ZM22.1847 3.74094C18.2634 6.28029 15.6401 10.3766 13.8791 14.9071C12.1145 19.4471 11.1643 24.5537 10.6711 29.3011C10.177 34.0575 10.1362 38.511 10.2179 41.7711C10.2588 43.403 10.3305 44.7403 10.3922 45.6725C10.4231 46.1387 10.4515 46.5038 10.4724 46.7541C10.4828 46.8793 10.4913 46.9758 10.4974 47.0419C10.5004 47.0749 10.5027 47.1003 10.5044 47.118C10.5053 47.1268 10.5059 47.1336 10.5064 47.1385C10.5066 47.1409 10.5068 47.1429 10.507 47.1443C10.507 47.145 10.5071 47.1458 10.5071 47.1461C10.5072 47.1467 10.5072 47.1472 12 47C13.4928 46.8529 13.4928 46.8531 13.4928 46.8531C13.4928 46.853 13.4928 46.853 13.4927 46.8527C13.4927 46.8521 13.4926 46.8511 13.4924 46.8496C13.4921 46.8465 13.4917 46.8414 13.491 46.8345C13.4897 46.8205 13.4876 46.7988 13.485 46.7695C13.4796 46.7109 13.4718 46.6222 13.462 46.505C13.4425 46.2706 13.4153 45.9224 13.3856 45.4742C13.3263 44.5775 13.2567 43.2816 13.2169 41.696C13.1374 38.5211 13.1781 34.2026 13.6551 29.611C14.133 25.0104 15.0432 20.1931 16.6753 15.994C18.3111 11.7855 20.6208 8.32778 23.8153 6.25905L22.1847 3.74094Z" fill="white"/>
</svg>
