<svg width="16" height="20" viewBox="0 0 16 20" fill="none" xmlns="http://www.w3.org/2000/svg">
<path d="M1.94566e-06 3.1746C1.94566e-06 2.33265 0.351191 1.52517 0.976312 0.92982C1.60143 0.334466 2.44928 0 3.33333 0L15 0C15.2652 0 15.5196 0.10034 15.7071 0.278946C15.8946 0.457552 16 0.699794 16 0.952381V16.8254C16 17.078 15.8946 17.3202 15.7071 17.4988C15.5196 17.6774 15.2652 17.7778 15 17.7778H11.6667C11.4015 17.7778 11.1471 17.6774 10.9596 17.4988C10.772 17.3202 10.6667 17.078 10.6667 16.8254C10.6667 16.5728 10.772 16.3306 10.9596 16.152C11.1471 15.9734 11.4015 15.873 11.6667 15.873H14V13.3333H3.33333C3.07078 13.3334 2.81408 13.4072 2.59542 13.5457C2.37676 13.6841 2.20589 13.8809 2.10422 14.1115C2.00255 14.342 1.97461 14.596 2.02391 14.8416C2.0732 15.0872 2.19755 15.3135 2.38133 15.4921C2.47326 15.5814 2.5458 15.6872 2.59481 15.8033C2.64383 15.9194 2.66835 16.0435 2.66699 16.1686C2.66563 16.2937 2.6384 16.4173 2.58687 16.5324C2.53535 16.6475 2.46052 16.7518 2.36667 16.8394C2.27282 16.9269 2.16178 16.996 2.03989 17.0427C1.91801 17.0894 1.78766 17.1127 1.6563 17.1114C1.52493 17.1101 1.39512 17.0842 1.27428 17.0351C1.15344 16.986 1.04393 16.9148 0.952002 16.8254C0.340951 16.2322 -0.000941082 15.4342 1.94566e-06 14.6032V3.1746ZM14 1.90476H3.33333C2.97971 1.90476 2.64057 2.03855 2.39053 2.27669C2.14048 2.51483 2 2.83782 2 3.1746V11.6927C2.42046 11.5177 2.87449 11.4278 3.33333 11.4286H14V1.90476ZM4 15.5556C4 15.4714 4.03512 15.3906 4.09763 15.3311C4.16014 15.2715 4.24493 15.2381 4.33333 15.2381H9C9.08841 15.2381 9.17319 15.2715 9.2357 15.3311C9.29822 15.3906 9.33333 15.4714 9.33333 15.5556V19.6825C9.33333 19.7415 9.3161 19.7993 9.28355 19.8494C9.25101 19.8996 9.20444 19.9401 9.14907 19.9665C9.0937 19.9929 9.03172 20.004 8.97007 19.9987C8.90841 19.9934 8.84952 19.9719 8.8 19.9365L6.86667 18.5562C6.80906 18.5148 6.73885 18.4924 6.66667 18.4924C6.59449 18.4924 6.52428 18.5148 6.46667 18.5562L4.53333 19.9365C4.48381 19.9719 4.42492 19.9934 4.36327 19.9987C4.30162 20.004 4.23963 19.9929 4.18426 19.9665C4.12889 19.9401 4.08233 19.8996 4.04978 19.8494C4.01724 19.7993 4 19.7415 4 19.6825V15.5556Z" fill="#C9C9C9"/>
</svg>
